/* XPM */
static char * east_xpm[] = {
"64 64 24 1",
" 	c #2726AA",
".	c #1C1B84",
"+	c #141367",
"@	c #15146C",
"#	c #15146A",
"$	c #000000",
"%	c #030328",
"&	c #2726A9",
"*	c #0C0C4D",
"=	c #131264",
"-	c #141469",
";	c #1C1B85",
">	c #161670",
",	c #1F1F90",
"'	c #2625A5",
")	c #000004",
"!	c #22219A",
"~	c #1C1B83",
"{	c #2625A7",
"]	c #0D0D51",
"^	c #202093",
"/	c #1B1B81",
"(	c #121161",
"_	c #201F91",
"                                                                ",
"                                                                ",
"                                                                ",
"                                                                ",
"                                                                ",
"                                                                ",
"                                                                ",
"                                                                ",
"                                                                ",
"                                                                ",
"                                                                ",
"                                                                ",
"                                                                ",
"                                                                ",
"                   .++++++++++++++++++++++@                     ",
"                   #$$$$$$$$$$$$$$$$$$$$$$%&                    ",
"                   #$$$$$$$$$$$$$$$$$$$$$$%&                    ",
"                   #$$$$$$$$$$$$$$$$$$$$$$%&                    ",
"                   #$$$$*=================-                     ",
"                   #$$$$;                                       ",
"                   #$$$$;                                       ",
"                   #$$$$;                                       ",
"                   #$$$$;                                       ",
"                   #$$$$;                                       ",
"                   #$$$$;                                       ",
"                   #$$$$;                                       ",
"                   #$$$$;                                       ",
"                   #$$$$;                                       ",
"                   #$$$$;                                       ",
"                   #$$$$>,,,,,,,,,,,,,,,,,'                     ",
"                   #$$$$$$$$$$$$$$$$$$$$$)!                     ",
"                   #$$$$$$$$$$$$$$$$$$$$$)!                     ",
"                   #$$$$$$$$$$$$$$$$$$$$$)!                     ",
"                   #$$$$$$$$$$$$$$$$$$$$$$!                     ",
"                   #$$$$~{{{{{{{{{{{{{{{{{&                     ",
"                   #$$$$;                                       ",
"                   #$$$$;                                       ",
"                   #$$$$;                                       ",
"                   #$$$$;                                       ",
"                   #$$$$;                                       ",
"                   #$$$$;                                       ",
"                   #$$$$;                                       ",
"                   #$$$$;                                       ",
"                   #$$$$;                                       ",
"                   #$$$$;                                       ",
"                   #$$$$;                                       ",
"                   #$$$$;                                       ",
"                   #$$$$]------------------^                    ",
"                   #$$$$$$$$$$$$$$$$$$$$$$$;                    ",
"                   #$$$$$$$$$$$$$$$$$$$$$$$;                    ",
"                   #$$$$$$$$$$$$$$$$$$$$$$$;                    ",
"                   /(((((((((((((((((((((((_                    ",
"                                                                ",
"                                                                ",
"                                                                ",
"                                                                ",
"                                                                ",
"                                                                ",
"                                                                ",
"                                                                ",
"                                                                ",
"                                                                ",
"                                                                ",
"                                                                "};
