/* XPM */
static char * north_xpm[] = {
"64 64 94 2",
"  	c #AC2008",
". 	c #AD2008",
"+ 	c #AA1F08",
"@ 	c #450701",
"# 	c #2D0300",
"$ 	c #370401",
"% 	c #A31E07",
"& 	c #761304",
"* 	c #931A06",
"= 	c #360401",
"- 	c #000000",
"; 	c #6F1103",
"> 	c #711203",
", 	c #911905",
"' 	c #1B0100",
") 	c #9F1D07",
"! 	c #670F03",
"~ 	c #120100",
"{ 	c #9B1C06",
"] 	c #5E0D02",
"^ 	c #250200",
"/ 	c #440701",
"( 	c #0A0000",
"_ 	c #961B06",
": 	c #2B0301",
"< 	c #8C1805",
"[ 	c #030000",
"} 	c #550B02",
"| 	c #AB2008",
"1 	c #AA2008",
"2 	c #4F0902",
"3 	c #040000",
"4 	c #911906",
"5 	c #070000",
"6 	c #4C0801",
"7 	c #590B02",
"8 	c #010000",
"9 	c #8B1805",
"0 	c #981B06",
"a 	c #0D0000",
"b 	c #420601",
"c 	c #A91F08",
"d 	c #620E02",
"e 	c #851605",
"f 	c #9C1C06",
"g 	c #150100",
"h 	c #380401",
"i 	c #A81F08",
"j 	c #6A1003",
"k 	c #7F1504",
"l 	c #A01D07",
"m 	c #1F0200",
"n 	c #2E0301",
"o 	c #A51E07",
"p 	c #721203",
"q 	c #781304",
"r 	c #A41E07",
"s 	c #290200",
"t 	c #240200",
"u 	c #A21E07",
"v 	c #791404",
"w 	c #701103",
"x 	c #A61F07",
"y 	c #320401",
"z 	c #190100",
"A 	c #801504",
"B 	c #680F03",
"C 	c #3C0501",
"D 	c #0F0100",
"E 	c #871705",
"F 	c #5F0D02",
"G 	c #460701",
"H 	c #971B06",
"I 	c #8D1805",
"J 	c #560B02",
"K 	c #500902",
"L 	c #020000",
"M 	c #921906",
"N 	c #921A06",
"O 	c #050000",
"P 	c #590C02",
"Q 	c #0B0000",
"R 	c #861705",
"S 	c #130100",
"T 	c #380501",
"U 	c #691003",
"V 	c #6B1003",
"W 	c #1E0100",
"X 	c #731203",
"Y 	c #280200",
"Z 	c #7A1404",
"` 	c #831604",
" .	c #941A06",
"..	c #A11D07",
"                                                                                                                                ",
"                                                                                                                                ",
"                                                                                                                                ",
"                                                                                                                                ",
"                                                                                                                                ",
"                                                                                                                                ",
"                                                                                                                                ",
"                                                                                                                                ",
"                                                                                                                                ",
"                                                                                                                                ",
"                                                                                                                                ",
"                                                                                                                                ",
"                                                                                                                                ",
"                                    . . . . .                                     . . . .                                       ",
"                                + @ # # # # # $ %                               & # # # # *                                     ",
"                                + = - - - - - - ;                               > - - - - ,                                     ",
"                                + = - - - - - - ' )                             > - - - - ,                                     ",
"                                + = - - - - - - - !                             > - - - - ,                                     ",
"                                + = - - - - - - - ~ {                           > - - - - ,                                     ",
"                                + = - - - - - - - - ]                           > - - - - ,                                     ",
"                                + = - - - ^ / - - - ( _                         > - - - - ,                                     ",
"                                + = - - - : < [ - - - } |                       > - - - - ,                                     ",
"                                + = - - - : 1 2 - - - 3 4                       > - - - - ,                                     ",
"                                + = - - - : | * 5 - - - 6 1                     > - - - - ,                                     ",
"                                + = - - - : |   7 - - - 8 9                     > - - - - ,                                     ",
"                                + = - - - : |   0 a - - - b c                   > - - - - ,                                     ",
"                                + = - - - : |     d - - - 8 e                   > - - - - ,                                     ",
"                                + = - - - : |     f g - - - h i                 > - - - - ,                                     ",
"                                + = - - - : |       j - - - - k                 > - - - - ,                                     ",
"                                + = - - - : |       l m - - - n o               > - - - - ,                                     ",
"                                + = - - - : |         p - - - - q               > - - - - ,                                     ",
"                                + = - - - : |         r s - - - t u             > - - - - ,                                     ",
"                                + = - - - : |           v - - - - w             > - - - - ,                                     ",
"                                + = - - - : |           x y - - - z )           > - - - - ,                                     ",
"                                + = - - - : |             A - - - - B           > - - - - ,                                     ",
"                                + = - - - : |             i C - - - D {         > - - - - ,                                     ",
"                                + = - - - : |               E - - - - F         > - - - - ,                                     ",
"                                + = - - - : |               1 G - - - 5 H       > - - - - ,                                     ",
"                                + = - - - : |                 I 8 - - - J |     > - - - - ,                                     ",
"                                + = - - - : |                 | K - - - L M     > - - - - ,                                     ",
"                                + = - - - : |                   N O - - - 6 1   > - - - - ,                                     ",
"                                + = - - - : |                     P - - - - <   > - - - - ,                                     ",
"                                + = - - - : |                     H Q - - - b c > - - - - ,                                     ",
"                                + = - - - : |                       d - - - - R > - - - - ,                                     ",
"                                + = - - - : |                       f S - - - T U - - - - ,                                     ",
"                                + = - - - : |                         V - - - - W - - - - ,                                     ",
"                                + = - - - : |                         l W - - - - - - - - ,                                     ",
"                                + = - - - : |                           X - - - - - - - - ,                                     ",
"                                + = - - - : |                           % Y - - - - - - - ,                                     ",
"                                + = - - - : |                             Z - - - - - - - ,                                     ",
"                                + = - - - : |                             x y - - - - - - ,                                     ",
"                                | E ` ` ` R                                  .` ` ` ` ` ` ..                                    ",
"                                                                                                                                ",
"                                                                                                                                ",
"                                                                                                                                ",
"                                                                                                                                ",
"                                                                                                                                ",
"                                                                                                                                ",
"                                                                                                                                ",
"                                                                                                                                ",
"                                                                                                                                ",
"                                                                                                                                ",
"                                                                                                                                ",
"                                                                                                                                "};
