/* XPM */
static char * south_xpm[] = {
"64 64 131 2",
"  	c #3DAA00",
". 	c #3DA900",
"+ 	c #3AA300",
"@ 	c #389E00",
"# 	c #379C00",
"$ 	c #389D00",
"% 	c #389F00",
"& 	c #3CA800",
"* 	c #2B7E00",
"= 	c #1C5A00",
"- 	c #0C3100",
"; 	c #051C00",
"> 	c #010C00",
", 	c #000100",
"' 	c #000200",
") 	c #020E00",
"! 	c #041B00",
"~ 	c #092900",
"{ 	c #154800",
"] 	c #216600",
"^ 	c #2B7F00",
"/ 	c #349500",
"( 	c #3BA500",
"_ 	c #369800",
": 	c #1D5A00",
"< 	c #020F00",
"[ 	c #000000",
"} 	c #072400",
"| 	c #1B5700",
"1 	c #308A00",
"2 	c #297900",
"3 	c #031400",
"4 	c #236B00",
"5 	c #010700",
"6 	c #062000",
"7 	c #092B00",
"8 	c #082800",
"9 	c #051D00",
"0 	c #000300",
"a 	c #020D00",
"b 	c #1D5B00",
"c 	c #2F8800",
"d 	c #379B00",
"e 	c #257000",
"f 	c #113E00",
"g 	c #010800",
"h 	c #051E00",
"i 	c #124100",
"j 	c #359500",
"k 	c #369900",
"l 	c #287600",
"m 	c #0D3500",
"n 	c #277300",
"o 	c #103B00",
"p 	c #39A100",
"q 	c #3CA700",
"r 	c #359600",
"s 	c #308B00",
"t 	c #082700",
"u 	c #164A00",
"v 	c #164B00",
"w 	c #0A2D00",
"x 	c #000400",
"y 	c #318D00",
"z 	c #144500",
"A 	c #0E3800",
"B 	c #297800",
"C 	c #0B3000",
"D 	c #031300",
"E 	c #1A5400",
"F 	c #287800",
"G 	c #328F00",
"H 	c #3AA200",
"I 	c #328E00",
"J 	c #021100",
"K 	c #113F00",
"L 	c #206300",
"M 	c #2B7D00",
"N 	c #349400",
"O 	c #092A00",
"P 	c #226900",
"Q 	c #349300",
"R 	c #216500",
"S 	c #010B00",
"T 	c #195200",
"U 	c #297A00",
"V 	c #3CA900",
"W 	c #379A00",
"X 	c #2C8100",
"Y 	c #226700",
"Z 	c #154700",
"` 	c #031600",
" .	c #267200",
"..	c #1B5800",
"+.	c #041900",
"@.	c #308900",
"#.	c #062100",
"$.	c #0F3800",
"%.	c #103C00",
"&.	c #2F8900",
"*.	c #144600",
"=.	c #2F8700",
"-.	c #339200",
";.	c #062200",
">.	c #329000",
",.	c #0B2F00",
"'.	c #2C7F00",
").	c #195100",
"!.	c #246B00",
"~.	c #2E8600",
"{.	c #2E8500",
"].	c #3CA600",
"^.	c #339100",
"/.	c #3BA400",
"(.	c #1A5500",
"_.	c #041A00",
":.	c #236900",
"<.	c #1F5F00",
"[.	c #256F00",
"}.	c #287500",
"|.	c #010600",
"1.	c #184F00",
"2.	c #1B5500",
"3.	c #062300",
"4.	c #010A00",
"5.	c #021000",
"6.	c #134200",
"7.	c #2D8200",
"8.	c #2C8000",
"9.	c #2E8400",
"0.	c #318C00",
"                                                                                                                                ",
"                                                                                                                                ",
"                                                                                                                                ",
"                                                                                                                                ",
"                                                                                                                                ",
"                                                                                                                                ",
"                                                                                                                                ",
"                                                                                                                                ",
"                                                                                                                                ",
"                                                                                                                                ",
"                                                                                                                                ",
"                                                                                                                                ",
"                                                                                                                                ",
"                                                        . + @ # $ % + &                                                         ",
"                                                  # * = - ; > , ' ) ! ~ { ] ^ / (                                               ",
"                                              _ : < [ [ [ [ [ [ [ [ [ [ [ [ [ [ } | 1                                           ",
"                                          . 2 3 [ [ [ [ [ [ [ [ [ [ [ [ [ [ [ [ [ [ =                                           ",
"                                        . 4 [ [ [ [ [ [ [ 5 6 ~ 7 8 9 0 [ [ [ [ [ [ =                                           ",
"                                        * [ [ [ [ [ a b c # ( .   & + d 1 e f g [ [ =                                           ",
"                                      % h [ [ [ [ i j                       . k l m =                                           ",
"                                      n [ [ [ [ o p                               q r                                           ",
"                                    . i [ [ [ [ s                                                                               ",
"                                    + [ [ [ [ t q                                                                               ",
"                                    _ [ [ [ [ u                                                                                 ",
"                                    / [ [ [ [ v                                                                                 ",
"                                    k [ [ [ [ w q                                                                               ",
"                                    + x [ [ [ [ y                                                                               ",
"                                    . z [ [ [ [ A $                                                                             ",
"                                      B [ [ [ [ [ 8 2 p                                                                         ",
"                                      + C [ [ [ [ [ [ D E F G H .                                                               ",
"                                        I J [ [ [ [ [ [ [ [ [ ' K L M N q                                                       ",
"                                          y 8 [ [ [ [ [ [ [ [ [ [ [ [ [ O P Q .                                                 ",
"                                            @ R S [ [ [ [ [ [ [ [ [ [ [ [ [ ' T j                                               ",
"                                                # n f [ [ [ [ [ [ [ [ [ [ [ [ [ ) U .                                           ",
"                                                    V W X Y Z ` [ [ [ [ [ [ [ [ [ '  .                                          ",
"                                                            . ( / M ..+.[ [ [ [ [ [ x @.                                        ",
"                                                                      p l #.[ [ [ [ [ $.q                                       ",
"                                                                          d %.[ [ [ [ [ &.                                      ",
"                                                                            k +.[ [ [ [ ]                                       ",
"                                                                              R [ [ [ [ *..                                     ",
"                                                                              =.[ [ [ [ w &                                     ",
"                                                                              -.[ [ [ [ ;.&                                     ",
"                                                                              >.[ [ [ [ ,.&                                     ",
"                                                                              '.[ [ [ [ { .                                     ",
"                                                                            . ).[ [ [ [ Y                                       ",
"                                    + !.$                                   ~.[ [ [ [ [ @.                                      ",
"                                    H [ ` L Q &                         . {.+.[ [ [ [ A ].                                      ",
"                                    H [ [ [ , %. .^.+ .             /.y (.0 [ [ [ [ , c                                         ",
"                                    H [ [ [ [ [ [ [ _.f | ] 4 :.<.{ ;.[ [ [ [ [ [ [ [..                                         ",
"                                    H [ [ [ [ [ [ [ [ [ [ [ [ [ [ [ [ [ [ [ [ [ ) }.V                                           ",
"                                    & @.<.#.[ [ [ [ [ [ [ [ [ [ [ [ [ [ [ [ |.1.Q                                               ",
"                                          ( ^.l 2.3.4.[ [ [ [ [ [ [ ' 5.6. ./ .                                                 ",
"                                                  & $ -.@.7.'.8.9.0.r H                                                         ",
"                                                                                                                                ",
"                                                                                                                                ",
"                                                                                                                                ",
"                                                                                                                                ",
"                                                                                                                                ",
"                                                                                                                                ",
"                                                                                                                                ",
"                                                                                                                                ",
"                                                                                                                                ",
"                                                                                                                                ",
"                                                                                                                                "};
