/* XPM */
static char * west_xpm[] = {
"64 64 156 2",
"  	c #AA8F00",
". 	c #665500",
"+ 	c #3D3200",
"@ 	c #917A00",
"# 	c #9B8200",
"$ 	c #6E5C00",
"% 	c #A98E00",
"& 	c #5A4B00",
"* 	c #977E00",
"= 	c #786400",
"- 	c #000000",
"; 	c #736000",
"> 	c #826C00",
", 	c #3B3000",
"' 	c #A88D00",
") 	c #A38900",
"! 	c #0C0800",
"~ 	c #1F1800",
"{ 	c #A68B00",
"] 	c #927A00",
"^ 	c #4E4000",
"/ 	c #635200",
"( 	c #9D8400",
"_ 	c #8C7600",
": 	c #554600",
"< 	c #1A1400",
"[ 	c #1B1500",
"} 	c #A48900",
"| 	c #372D00",
"1 	c #867000",
"2 	c #705E00",
"3 	c #564700",
"4 	c #907900",
"5 	c #9C8300",
"6 	c #4B3E00",
"7 	c #927B00",
"8 	c #746100",
"9 	c #836E00",
"0 	c #514300",
"a 	c #0B0800",
"b 	c #A88E00",
"c 	c #130E00",
"d 	c #1E1700",
"e 	c #010100",
"f 	c #4D4000",
"g 	c #645300",
"h 	c #846E00",
"i 	c #403400",
"j 	c #040300",
"k 	c #9E8400",
"l 	c #8E7700",
"m 	c #A58B00",
"n 	c #191300",
"o 	c #392F00",
"p 	c #030200",
"q 	c #6C5A00",
"r 	c #877100",
"s 	c #715F00",
"t 	c #786500",
"u 	c #332900",
"v 	c #887200",
"w 	c #675600",
"x 	c #796500",
"y 	c #766200",
"z 	c #856F00",
"A 	c #655400",
"B 	c #3A3000",
"C 	c #181200",
"D 	c #1C1600",
"E 	c #A68C00",
"F 	c #826D00",
"G 	c #A98F00",
"H 	c #382D00",
"I 	c #0A0600",
"J 	c #8F7800",
"K 	c #574800",
"L 	c #3A2F00",
"M 	c #050300",
"N 	c #998000",
"O 	c #685600",
"P 	c #2D2400",
"Q 	c #857000",
"R 	c #695700",
"S 	c #4C3E00",
"T 	c #776300",
"U 	c #625100",
"V 	c #090600",
"W 	c #010000",
"X 	c #4F4100",
"Y 	c #816C00",
"Z 	c #312800",
"` 	c #0D0900",
" .	c #A58A00",
"..	c #1D1600",
"+.	c #1D1700",
"@.	c #987F00",
"#.	c #756100",
"$.	c #7A6600",
"%.	c #544500",
"&.	c #282000",
"*.	c #6A5900",
"=.	c #4D3F00",
"-.	c #020100",
";.	c #937B00",
">.	c #5E4E00",
",.	c #998100",
"'.	c #020200",
").	c #524300",
"!.	c #685700",
"~.	c #7F6A00",
"{.	c #A78C00",
"].	c #2D2500",
"^.	c #0E0A00",
"/.	c #A48A00",
"(.	c #201900",
"_.	c #967E00",
":.	c #5D4D00",
"<.	c #7B6700",
"[.	c #534400",
"}.	c #261E00",
"|.	c #947C00",
"1.	c #594A00",
"2.	c #977F00",
"3.	c #937C00",
"4.	c #6B5900",
"5.	c #7D6800",
"6.	c #2A2200",
"7.	c #9E8500",
"8.	c #231C00",
"9.	c #957D00",
"0.	c #897200",
"a.	c #524400",
"b.	c #0F0A00",
"c.	c #251D00",
"d.	c #6D5B00",
"e.	c #897300",
"f.	c #9F8500",
"g.	c #564800",
"h.	c #241C00",
"i.	c #1A1500",
"j.	c #3E3300",
"k.	c #7C6700",
"l.	c #433700",
"m.	c #261F00",
"n.	c #1C1500",
"o.	c #050400",
"p.	c #292000",
"q.	c #100B00",
"r.	c #221B00",
"s.	c #907800",
"t.	c #4B3D00",
"u.	c #171200",
"v.	c #705D00",
"w.	c #836D00",
"x.	c #988000",
"y.	c #7C6800",
"                                                                                                                                ",
"                                                                                                                                ",
"                                                                                                                                ",
"                                                                                                                                ",
"                                                                                                                                ",
"                                                                                                                                ",
"                                                                                                                                ",
"                                                                                                                                ",
"                                                                                                                                ",
"                                                                                                                                ",
"                                                                                                                                ",
"                                                                                                                                ",
"                                                                                                                                ",
"                                                                                                                                ",
"                                                                                                                                ",
"                                                                                                                                ",
"                  . + + + + @                             # + + + + + $                             % & + + + + *               ",
"                  = - - - - ;                             > - - - - - , '                           ) ! - - - ~ {               ",
"                  ] - - - - ^                             / - - - - - - (                           _ - - - - :                 ",
"                  { < - - - [ }                         ' | - - - - - - 1                           2 - - - - =                 ",
"                    3 - - - - 4                         5 - - - - - - - .                         % 6 - - - - 7                 ",
"                    = - - - - 8                         9 - - - 0 a - - , b                       ) c - - - d {                 ",
"                    @ e - - - f                         g - - - h i - - j k                       l - - - - 3                   ",
"                    m n - - - d )                     ' o - - p # q - - - r                       s - - - - t                   ",
"                      : - - - - @                     ( - - - u % v - - - w                       6 - - - - 7                   ",
"                      x - - - - y                     z - - - A   ( ! - - B %                   ) C - - - D E                   ",
"                      ] e - - - ^                     A - - - F   G H - - I (                   J - - - - K                     ",
"                      m < - - - ~ )                 ' L - - M N     O - - - v                   ; - - - - x                     ",
"                        : - - - - ]                 ( p - - P %     Q - - - R                   S - - - e 7                     ",
"                        x - - - - T                 1 - - - U       # V - - L %               ) D - - - D {                     ",
"                        7 W - - - X                 . - - - Y       % Z - - ` (               4 - - - - K                       ",
"                         ...- - - +.}             % L - - M @.        / - - - v               #.- - - - $.                      ",
"                          %.- - - - ]             ( V - - &.'         F - - - *.              =.- - - -.;.                      ",
"                          x - - - - =             r - - - >.          ,.'.- - ,             ) d - - - +.{                       ",
"                          ;.- - - - ).            !.- - - ~.          {.].- - ^.k           @ - - - - K                         ",
"                          /.(.- - - [ /.        % L - - -._.            :.- - - v           T - - - - <.                        ",
"                            [.- - - - ]         ( ` - - }.E             ~.- - - q           X - - - e |.                        ",
"                            x - - - - x         v - - - 1.              2.- - - +         } d - - - (.{                         ",
"                            3.- - - - %.        4.- - - 5.              { 6.- - ` 7.      ] - - - - K                           ",
"                            /.8.- - - < m       , - - - 9.                K - - - 0.      = - - - - <.                          ",
"                              a.- - - e ]     k b.- - c.m                 <.- - - d.      a.- - - - |.                          ",
"                              x - - - - x     e.- - - :                   9.- - - i     /.D - - - 8.m                           ",
"                              |.- - - - 3     q - - - $.                  m c.- - V f.  ] W - - - g.                            ",
"                               .h.- - - i.{   j.- - - |.                    [.- - - e.  x - - - - k.                            ",
"                                [.- - - e 7 7.` - - 8./.                    T - - - d.  : - - - - 9.                            ",
"                                = - - - - x e.- - - 0                       ] - - - l.m [ - - - m.m                             ",
"                                |.- - - - K d.- - - T                       /.n.- - o.1 e - - - 3                               ",
"                                m 8.- - - D , - - - ]                         X - - - i - - - - k.                              ",
"                                  %.- - - - - - - ~ /.                        ; - - - - - - - - _.                              ",
"                                  = - - - - - - - X                           l - - - - - - - p.m                               ",
"                                  3.- - - - - - - 8                           ) q.- - - - - - K                                 ",
"                                  m r.- - - - - - s.                          % t.- - - - - - <.                                ",
"                                    : - - - - - u.}                             v.- - - - - - _.                                ",
"                                    4 <.<.<.<.<.w.G                             x.<.<.<.<.<.y.{.                                ",
"                                                                                                                                ",
"                                                                                                                                ",
"                                                                                                                                ",
"                                                                                                                                ",
"                                                                                                                                ",
"                                                                                                                                ",
"                                                                                                                                ",
"                                                                                                                                ",
"                                                                                                                                ",
"                                                                                                                                "};
